<svg height="512pt" viewBox="-39 0 512 512.00176" width="512pt" xmlns="http://www.w3.org/2000/svg"><path d="m193.335938 85.023438h48.015624v92.246093h-48.015624zm0 0" fill="#76ffd9"/><path d="m193.335938 127.582031h48.015624v49.6875h-48.015624zm0 0" fill="#5de0bf"/><path d="m222.453125 7.5s-53.730469 60.519531 0 60.519531c41.078125 0 0-60.519531 0-60.519531zm0 0" fill="#ffc843"/><path d="m108.664062 85.023438h48.015626v92.246093h-48.015626zm0 0" fill="#76ffd9"/><path d="m108.664062 127.582031h48.015626v49.6875h-48.015626zm0 0" fill="#5de0bf"/><path d="m137.78125 7.5s-53.730469 60.519531 0 60.519531c41.078125 0 0-60.519531 0-60.519531zm0 0" fill="#ffc843"/><path d="m278.007812 85.023438h48.015626v92.246093h-48.015626zm0 0" fill="#76ffd9"/><path d="m278.007812 127.582031h48.015626v49.6875h-48.015626zm0 0" fill="#5de0bf"/><path d="m307.125 7.5s-53.726562 60.519531 0 60.519531c41.082031 0 0-60.519531 0-60.519531zm0 0" fill="#ffc843"/><path d="m51.511719 171.734375h331.664062v142.914063h-331.664062zm0 0" fill="#fff"/><path d="m383.175781 171.734375v81.949219c-4.972656 2.007812-10.40625 3.109375-16.089843 3.109375h-7.4375c-23.859376 0-43.269532-19.410157-43.269532-43.265625v-7.351563c0-.660156-.53125-1.191406-1.199218-1.191406-.65625 0-1.1875.53125-1.1875 1.191406v7.351563c0 23.855468-19.410157 43.265625-43.269532 43.265625h-9.152344c-23.859374 0-43.269531-19.410157-43.269531-43.265625v-7.351563c0-.660156-.539062-1.191406-1.199219-1.191406h-4.714843c-.65625 0-1.1875.53125-1.1875 1.191406v6.566407c0 23.859374-19.410157 43.269531-43.269531 43.269531h-6.535157c-23.855469 0-43.265625-19.410157-43.265625-43.269531v-6.566407c0-.660156-.53125-1.191406-1.191406-1.191406h-4.882812c-.65625 0-1.1875.53125-1.1875 1.191406v6.566407c0 23.859374-19.410157 43.269531-43.269532 43.269531-5.679687 0-11.113281-1.101563-16.085937-3.109375v-81.171875h331.664062zm0 0" fill="#e1eaf8"/><path d="m51.511719 267.003906h331.667969v22.554688h-331.667969zm0 0" fill="#76ffd9"/><path d="m40.316406 162.550781v50.199219c0 15.070312 12.21875 27.289062 27.292969 27.28125 15.0625-.003906 27.273437-12.21875 27.273437-27.28125v-6.570312c0-9.488282 7.691407-17.179688 17.175782-17.179688h4.878906c9.488281 0 17.175781 7.691406 17.175781 17.179688v6.570312c0 15.066406 12.214844 27.28125 27.285157 27.28125h6.53125c15.070312 0 27.285156-12.214844 27.285156-27.28125v-6.570312c0-9.488282 7.691406-17.179688 17.175781-17.179688h4.710937c9.488282 0 17.179688 7.691406 17.179688 17.179688v7.34375c0 15.070312 12.214844 27.285156 27.28125 27.285156h9.160156c15.066406 0 27.28125-12.214844 27.28125-27.285156v-7.34375c0-9.488282 7.691406-17.179688 17.179688-17.179688 9.484375 0 17.175781 7.691406 17.175781 17.179688v7.34375c0 15.070312 12.214844 27.285156 27.285156 27.285156h7.441407c15.070312 0 27.285156-12.214844 27.285156-27.285156v-50.972657c0-6-4.863282-10.867187-10.867188-10.867187h-332.320312c-6.003906 0-10.867188 4.867187-10.867188 10.867187zm0 0" fill="#ffc843"/><path d="m20.773438 335.09375h393.144531v169.40625h-393.144531zm0 0" fill="#fff"/><path d="m413.914062 335.09375v97.144531c-5.890624 2.378907-12.332031 3.683594-19.070312 3.683594h-8.820312c-28.277344 0-51.285157-23.007813-51.285157-51.289063v-8.714843c0-.777344-.632812-1.410157-1.421875-1.410157-.777344 0-1.410156.632813-1.410156 1.410157v8.714843c0 28.28125-23.007812 51.289063-51.285156 51.289063h-10.851563c-28.28125 0-51.289062-23.007813-51.289062-51.289063v-8.714843c0-.777344-.640625-1.410157-1.421875-1.410157h-5.585938c-.78125 0-1.410156.632813-1.410156 1.410157v7.789062c0 28.28125-23.007812 51.285157-51.289062 51.285157h-7.746094c-28.277344 0-51.285156-23.003907-51.285156-51.285157v-7.789062c0-.777344-.632813-1.410157-1.410157-1.410157h-5.789062c-.78125 0-1.410157.632813-1.410157 1.410157v7.789062c0 28.28125-23.007812 51.285157-51.289062 51.285157-6.734375 0-13.175781-1.304688-19.070312-3.683594v-96.21875h393.140624zm0 0" fill="#e1eaf8"/><path d="m20.773438 451.769531h393.144531v26.734375h-393.144531zm0 0" fill="#76ffd9"/><path d="m7.5 324.210938v59.5c0 17.867187 14.484375 32.347656 32.351562 32.339843 17.859376-.003906 32.332032-14.480469 32.332032-32.339843v-7.789063c0-11.242187 9.117187-20.359375 20.363281-20.359375h5.777344c11.246093 0 20.363281 9.113281 20.363281 20.359375v7.789063c0 17.863281 14.480469 32.339843 32.339844 32.339843h7.742187c17.863281 0 32.34375-14.476562 32.34375-32.339843v-7.789063c0-11.242187 9.113281-20.359375 20.359375-20.359375h5.585938c11.246094 0 20.363281 9.113281 20.363281 20.359375v8.710937c0 17.863282 14.480469 32.339844 32.339844 32.339844h10.855469c17.863281 0 32.339843-14.480468 32.339843-32.339844v-8.710937c0-11.242187 9.117188-20.359375 20.363281-20.359375 11.246094 0 20.363282 9.113281 20.363282 20.359375v8.710937c0 17.863282 14.480468 32.339844 32.339844 32.339844h8.824218c17.863282 0 32.339844-14.480468 32.339844-32.339844v-60.421874c0-7.117188-5.765625-12.882813-12.878906-12.882813h-393.925782c-7.117187 0-12.882812 5.765625-12.882812 12.882813zm0 0" fill="#ffc843"/><g fill="#434c54"><path d="m414.308594 303.828125h-23.632813v-64.765625c6.882813-6.359375 11.199219-15.453125 11.199219-25.539062v-50.972657c0-10.128906-8.238281-18.367187-18.367188-18.367187h-49.980468v-59.15625c0-4.140625-3.359375-7.5-7.5-7.5h-14.210938v-2.265625c10.820313-1.210938 15.972656-6.585938 18.40625-11.183594 10.171875-19.191406-12.285156-54.007813-16.890625-60.792969-1.300781-1.914062-3.410156-3.121094-5.71875-3.269531-2.308593-.144531-4.558593.773437-6.097656 2.503906-5.59375 6.304688-33.039063 38.773438-23.875 59.171875 3.117187 6.9375 9.554687 11.28125 19.175781 12.996094v2.84375h-18.800781c-4.140625 0-7.5 3.355469-7.5 7.5v59.152344h-21.660156v-59.15625c0-4.140625-3.359375-7.5-7.5-7.5h-14.210938v-2.265625c10.820313-1.210938 15.972657-6.585938 18.40625-11.183594 10.171875-19.191406-12.285156-54.007813-16.890625-60.792969-1.300781-1.914062-3.410156-3.121094-5.71875-3.269531-2.3125-.144531-4.558594.773437-6.097656 2.503906-5.59375 6.304688-33.039062 38.773438-23.875 59.171875 3.117188 6.9375 9.554688 11.28125 19.175781 12.996094v2.84375h-18.808593c-4.144532 0-7.5 3.355469-7.5 7.5v59.152344h-21.652344v-59.15625c0-4.140625-3.355469-7.5-7.5-7.5h-14.214844v-2.265625c10.824219-1.210938 15.972656-6.585938 18.410156-11.183594 10.167969-19.191406-12.285156-54.007813-16.890625-60.792969-1.300781-1.914062-3.410156-3.121094-5.722656-3.269531-2.304687-.144531-4.554687.773437-6.09375 2.503906-5.59375 6.304688-33.042969 38.773438-23.875 59.171875 3.117187 6.9375 9.550781 11.28125 19.171875 12.996094v2.84375h-18.804688c-4.140624 0-7.5 3.355469-7.5 7.5v16.910156c0 4.140625 3.359376 7.5 7.5 7.5 4.144532 0 7.5-3.359375 7.5-7.5v-9.410156h33.019532v51.652344h-33.019532v-10.605469c0-4.140625-3.355468-7.5-7.5-7.5-4.140624 0-7.5 3.359375-7.5 7.5v10.605469h-49.980468c-10.128906 0-18.367188 8.242187-18.367188 18.367187v50.199219c0 9.292969 3.617188 18.027344 10.191406 24.597656.328126.332032.667969.648438 1.007813.960938v65.519531h-23.632813c-11.238281 0-20.382812 9.144531-20.382812 20.382813v59.5c0 10.648437 4.148438 20.652343 11.675781 28.179687.519531.519531 1.054688 1.019531 1.601563 1.507813v91.101562c0 4.144531 3.355468 7.5 7.5 7.5h281.238281c4.144531 0 7.5-3.355469 7.5-7.5 0-4.140625-3.355469-7.5-7.5-7.5h-273.742187v-75.140625c3.703124 1.117187 7.589843 1.695313 11.570312 1.695313h.011719c21.960937-.007813 39.828125-17.878907 39.828125-39.839844v-7.789063c0-7.09375 5.769531-12.863281 12.863281-12.863281h5.777344c7.09375 0 12.863281 5.773438 12.863281 12.863281v7.789063c0 21.96875 17.871094 39.839844 39.839844 39.839844h7.746094c21.96875 0 39.839843-17.871094 39.839843-39.839844v-7.789063c0-7.09375 5.769531-12.863281 12.859375-12.863281h5.585938c7.09375 0 12.863281 5.773438 12.863281 12.863281v8.707031c0 21.972657 17.875 39.84375 39.839844 39.84375h10.855469c21.96875 0 39.839843-17.871093 39.839843-39.84375v-8.707031c0-7.09375 5.769531-12.863281 12.863281-12.863281 7.089844 0 12.859376 5.773438 12.859376 12.863281v8.707031c0 21.972657 17.875 39.84375 39.84375 39.84375h8.824218c4.019532 0 7.902344-.605468 11.566406-1.71875v74.242188h-73.070312c-4.140625 0-7.5 3.359375-7.5 7.5 0 4.144531 3.359375 7.5 7.5 7.5h80.570312c4.144532 0 7.5-3.355469 7.5-7.5v-90.207031c8.144532-7.300781 13.277344-17.890625 13.277344-29.660157v-60.421874c0-11.238282-9.144531-20.382813-20.382812-20.382813zm-279.339844-257.089844c-4.140625 0-7.5 3.359375-7.5 7.5v5.089844c-2.535156-.738281-4.648438-1.917969-5.488281-3.785156-3.117188-6.925781 5.703125-22.8125 14.96875-35.140625 7.5 13.226562 14.230469 29.941406 10.675781 36.652344-.804688 1.519531-2.546875 2.53125-5.15625 3.050781v-5.867188c0-4.140625-3.359375-7.5-7.5-7.5zm156.355469 8.804688c-3.117188-6.925781 5.707031-22.808594 14.96875-35.140625 7.503906 13.226562 14.234375 29.941406 10.675781 36.652344-.804688 1.519531-2.542969 2.53125-5.152344 3.054687v-5.871094c0-4.140625-3.359375-7.5-7.5-7.5-4.144531 0-7.5 3.359375-7.5 7.5v5.089844c-2.539062-.738281-4.652344-1.917969-5.492187-3.785156zm-5.808594 36.984375h33.007813v51.65625h-33.007813zm-78.863281-36.984375c-3.117188-6.925781 5.707031-22.808594 14.96875-35.140625 7.503906 13.226562 14.230468 29.941406 10.675781 36.652344-.804687 1.519531-2.542969 2.53125-5.152344 3.054687v-5.871094c0-4.140625-3.359375-7.5-7.5-7.5-4.144531 0-7.5 3.359375-7.5 7.5v5.089844c-2.539062-.738281-4.652343-1.917969-5.492187-3.785156zm-5.816406 36.984375h33.019531v51.65625h-33.019531zm-153.019532 70.023437c0-1.855469 1.507813-3.367187 3.367188-3.367187h332.324218c1.855469 0 3.367188 1.511718 3.367188 3.367187v50.976563c0 10.90625-8.875 19.78125-19.785156 19.78125h-7.441406c-10.910157 0-19.785157-8.875-19.785157-19.78125v-7.347656c0-13.609376-11.070312-24.679688-24.679687-24.679688-13.605469 0-24.675782 11.070312-24.675782 24.679688v7.347656c0 10.90625-8.875 19.78125-19.785156 19.78125h-9.15625c-10.910156 0-19.785156-8.875-19.785156-19.78125v-7.347656c0-13.609376-11.070312-24.679688-24.675781-24.679688h-4.714844c-13.605469 0-24.675781 11.070312-24.675781 24.679688v6.570312c0 10.90625-8.875 19.78125-19.785156 19.78125h-6.53125c-10.910157 0-19.785157-8.875-19.785157-19.78125v-6.570312c0-13.609376-11.066406-24.679688-24.675781-24.679688h-4.875c-13.609375 0-24.679688 11.070312-24.679688 24.679688v6.570312c0 10.902344-8.871093 19.777344-19.777343 19.78125h-.007813c-5.28125 0-10.25-2.054688-13.984375-5.792969-3.738281-3.734375-5.796875-8.703125-5.796875-13.988281zm327.859375 141.277344h-316.660156v-57.359375c2.769531.699219 5.648437 1.0625 8.582031 1.0625h.011719c19.175781-.003906 34.773437-15.609375 34.773437-34.78125v-6.570312c0-5.335938 4.339844-9.679688 9.679688-9.679688h4.875c5.335938 0 9.675781 4.34375 9.675781 9.679688v6.570312c0 19.179688 15.605469 34.78125 34.785157 34.78125h6.53125c19.179687 0 34.785156-15.601562 34.785156-34.78125v-6.570312c0-5.335938 4.339844-9.679688 9.675781-9.679688h4.714844c5.335937 0 9.675781 4.34375 9.675781 9.679688v7.347656c0 19.179687 15.605469 34.78125 34.785156 34.78125h9.15625c19.179688 0 34.785156-15.601563 34.785156-34.78125v-7.347656c0-5.335938 4.339844-9.679688 9.675782-9.679688 5.339844 0 9.679687 4.34375 9.679687 9.679688v7.347656c0 19.179687 15.601563 34.78125 34.785157 34.78125h7.441406c2.960937 0 5.839844-.375 8.585937-1.074219zm44.015625 80.804687c0 13.699219-11.144531 24.839844-24.84375 24.839844h-8.824218c-13.695313 0-24.839844-11.140625-24.839844-24.839844v-8.710937c0-15.359375-12.5-27.859375-27.863282-27.859375-15.363281 0-27.859374 12.5-27.859374 27.859375v8.710937c0 13.699219-11.144532 24.839844-24.839844 24.839844h-10.855469c-13.699219 0-24.839844-11.140625-24.839844-24.839844v-8.710937c0-15.359375-12.5-27.859375-27.863281-27.859375h-5.585938c-15.363281 0-27.859374 12.5-27.859374 27.859375v7.789063c0 13.699218-11.144532 24.84375-24.84375 24.84375h-7.742188c-13.699219 0-24.84375-11.144532-24.84375-24.84375v-7.789063c0-15.359375-12.496094-27.859375-27.859375-27.859375h-5.78125c-15.363281 0-27.863281 12.5-27.863281 27.859375v7.789063c0 13.695312-11.140625 24.835937-24.832032 24.84375h-.007812c-6.636719 0-12.871094-2.585938-17.5625-7.273438-4.695312-4.691406-7.28125-10.933594-7.28125-17.570312v-59.5c0-2.96875 2.414062-5.382813 5.382812-5.382813h393.925782c2.96875 0 5.382812 2.414063 5.382812 5.382813zm0 0"/><path d="m263.644531 207.769531h1.589844c4.144531 0 7.5-3.355469 7.5-7.5 0-4.140625-3.355469-7.5-7.5-7.5h-1.589844c-4.140625 0-7.5 3.359375-7.5 7.5 0 4.144531 3.359375 7.5 7.5 7.5zm0 0"/><path d="m366.082031 186.582031h1.589844c4.144531 0 7.5-3.355469 7.5-7.5 0-4.140625-3.355469-7.5-7.5-7.5h-1.589844c-4.140625 0-7.5 3.359375-7.5 7.5 0 4.144531 3.359375 7.5 7.5 7.5zm0 0"/><path d="m143.847656 346.402344h1.589844c4.140625 0 7.5-3.355469 7.5-7.5 0-4.144532-3.359375-7.5-7.5-7.5h-1.589844c-4.144531 0-7.5 3.355468-7.5 7.5 0 4.144531 3.355469 7.5 7.5 7.5zm0 0"/><path d="m148.382812 359.46875c0 4.140625 3.359376 7.5 7.5 7.5h1.59375c4.140626 0 7.5-3.359375 7.5-7.5 0-4.144531-3.359374-7.5-7.5-7.5h-1.59375c-4.140624 0-7.5 3.355469-7.5 7.5zm0 0"/></g></svg>