<svg width="1920" height="200" viewBox="0 0 1920 200" fill="none" xmlns="http://www.w3.org/2000/svg">
<path fill-rule="evenodd" clip-rule="evenodd" d="M0 117.377L36 105.558C71 93.7388 142 70.5079 213 82.3271C284 93.7388 356 141.016 427 152.427C498 164.247 569 141.016 640 144.684C711 148.759 782 180.141 853 180.141C924 180.141 996 148.759 1067 132.865C1138 117.377 1209 117.377 1280 136.94C1351 156.503 1422 195.629 1493 199.704C1564 203.372 1636 171.99 1707 156.503C1778 141.016 1849 141.016 1884 141.016H1920V0H1884C1849 0 1778 0 1707 0C1636 0 1564 0 1493 0C1422 0 1351 0 1280 0C1209 0 1138 0 1067 0C996 0 924 0 853 0C782 0 711 0 640 0C569 0 498 0 427 0C356 0 284 0 213 0C142 0 71 0 36 0H0V117.377Z" fill="#FD64FD"/>
</svg>
