<svg width="1920" height="150" viewBox="0 0 1920 150" fill="none" xmlns="http://www.w3.org/2000/svg">
<path fill-rule="evenodd" clip-rule="evenodd" d="M0 27.8469L53 34.9078C107 41.6156 213 55.0313 320 48.3234C427 41.6156 533 14.4312 640 21.1391C747 27.8469 853 68.8 960 88.9234C1067 109.4 1173 109.4 1280 88.9234C1387 68.8 1493 27.8469 1600 10.9008C1707 -6.04529 1813 1.01558 1867 4.19297L1920 7.72341V150H1867C1813 150 1707 150 1600 150C1493 150 1387 150 1280 150C1173 150 1067 150 960 150C853 150 747 150 640 150C533 150 427 150 320 150C213 150 107 150 53 150H0V27.8469Z" fill="#FD64FD"/>
</svg>
