<?xml version="1.0" encoding="iso-8859-1"?>
<!-- Generator: Adobe Illustrator 19.0.0, SVG Export Plug-In . SVG Version: 6.00 Build 0)  -->
<svg version="1.1" id="Capa_1" xmlns="http://www.w3.org/2000/svg" xmlns:xlink="http://www.w3.org/1999/xlink" x="0px" y="0px"
	 viewBox="0 0 464 464" style="enable-background:new 0 0 464 464;" xml:space="preserve">
<path style="fill:#FFD782;" d="M426.344,145.582c-19.384-0.004-35.598-14.723-37.472-34.016c-18.587,9.26-41.161,1.7-50.422-16.887
	c-8.553-17.167-2.814-38.02,13.318-48.393C269.135,22.197,182.62,69.657,158.531,152.29s23.371,169.148,106.004,193.237
	s169.148-23.371,193.237-106.004c10-34.304,7.909-71.003-5.924-103.949C444.914,142.009,435.804,145.584,426.344,145.582
	L426.344,145.582z"/>
<circle style="fill:#D3843D;" cx="136" cy="287.982" r="136"/>
<g>
	<circle style="fill:#B5554E;" cx="232" cy="127.982" r="16"/>
	<circle style="fill:#B5554E;" cx="377.92" cy="265.902" r="26.896"/>
</g>
<path style="fill:#D3843D;" d="M293.317,186.662l17.649-17.649c7.732-7.732,20.269-7.732,28.002,0l0,0
	c7.732,7.732,7.732,20.269,0,28.002l-17.65,17.649c-7.732,7.732-20.269,7.732-28.002,0l0,0
	C285.585,206.931,285.585,194.395,293.317,186.662z"/>
<path style="fill:#FFD782;" d="M53.996,317.989l-15.998-15.998c-7.732-7.732-7.732-20.269,0-28.002l0,0
	c7.732-7.732,20.269-7.732,28.002,0l15.998,15.998c7.732,7.732,7.732,20.269,0,28.002l0,0
	C74.265,325.722,61.728,325.722,53.996,317.989z"/>
<g>
	<circle style="fill:#B5554E;" cx="112" cy="375.982" r="16"/>
	<circle style="fill:#B5554E;" cx="192" cy="231.982" r="16"/>
</g>
<path style="fill:#D3843D;" d="M424,215.982c-2.122,0-4.156-0.844-5.656-2.344l-16-16c-3.069-3.178-2.982-8.243,0.196-11.312
	c3.1-2.994,8.015-2.994,11.116,0l16,16c3.124,3.125,3.123,8.19-0.002,11.314C428.155,215.139,426.121,215.982,424,215.982
	L424,215.982z"/>
<g>
	<path style="fill:#B5554E;" d="M296,327.982c-4.418-0.001-7.999-3.583-7.998-8.002c0-2.121,0.843-4.154,2.342-5.654l16-16
		c3.178-3.07,8.242-2.982,11.312,0.196c2.995,3.1,2.995,8.016,0,11.116l-16,16C300.156,327.138,298.122,327.982,296,327.982z"/>
	<path style="fill:#B5554E;" d="M128,295.982c-4.418-0.001-7.999-3.583-7.998-8.002c0-2.121,0.843-4.154,2.342-5.654l16-16
		c3.178-3.069,8.243-2.982,11.312,0.196c2.994,3.1,2.994,8.015,0,11.116l-16,16C132.156,295.138,130.122,295.982,128,295.982
		L128,295.982z"/>
	<path style="fill:#B5554E;" d="M240,303.982c-2.122,0-4.156-0.844-5.656-2.344l-16-16c-3.07-3.178-2.982-8.242,0.196-11.312
		c3.1-2.994,8.015-2.994,11.116,0l16,16c3.124,3.125,3.123,8.19-0.002,11.314C244.155,303.139,242.121,303.982,240,303.982z"/>
</g>
<path style="fill:#D3843D;" d="M304,127.982c-2.677,0.003-5.178-1.333-6.664-3.56l-16-24c-2.452-3.676-1.46-8.644,2.216-11.096
	c3.676-2.452,8.644-1.46,11.096,2.216l0,0l16,24c2.452,3.675,1.461,8.643-2.215,11.095C307.12,127.513,305.578,127.981,304,127.982z
	"/>
<g>
	<path style="fill:#FFD782;" d="M168,319.982v40h40L168,319.982z"/>
	<path style="fill:#FFD782;" d="M120,199.982H80v40L120,199.982z"/>
</g>
<g>
</g>
<g>
</g>
<g>
</g>
<g>
</g>
<g>
</g>
<g>
</g>
<g>
</g>
<g>
</g>
<g>
</g>
<g>
</g>
<g>
</g>
<g>
</g>
<g>
</g>
<g>
</g>
<g>
</g>
</svg>
