<svg xmlns="http://www.w3.org/2000/svg" class="w-full h-full" aria-labelledby="instagram-stroke-icon-title" viewBox="0 0 512 512">
  <title id="instagram-stroke-icon-title">Bentobox on Instagram</title>
  <path fill="#ffffff" d="M118.3,512h275.3C459,512,512,459,512,393.7V118.3C512,53,459,0,393.7,0H118.3C53,0,0,53,0,118.3v275.3
	C0,459,53,512,118.3,512z M30,124.6C30,72.4,72.4,30,124.6,30h262.8c52.3,0,94.6,42.4,94.6,94.6v262.8c0,52.3-42.4,94.6-94.6,94.6
	H124.6C72.4,482,30,439.6,30,387.4V124.6z"></path>
  <path fill="#ffffff" d="M256,391c74.4,0,135-60.6,135-135s-60.6-135-135-135s-135,60.6-135,135S181.6,391,256,391z M256,151
	c57.9,0,105,47.1,105,105s-47.1,105-105,105s-105-47.1-105-105S198.1,151,256,151z"></path>
  <path fill="#ffffff" d="M402.9,141c17.6,0,31.9-14.3,31.9-31.9s-14.3-31.9-31.9-31.9S371,91.5,371,109.1S385.3,141,402.9,141z"></path>
</svg>